<svg width="15" height="15" viewBox="0 0 15 15" fill="none" xmlns="http://www.w3.org/2000/svg">
<path opacity="0.12" fill-rule="evenodd" clip-rule="evenodd" d="M7.5 1.25C4.04822 1.25 1.25 4.04822 1.25 7.5C1.25 10.9518 4.04822 13.75 7.5 13.75C10.9518 13.75 13.75 10.9518 13.75 7.5C13.75 4.04822 10.9518 1.25 7.5 1.25ZM10.625 8.125C10.625 8.125 9.84363 10.625 7.5 10.625C5.15637 10.625 4.375 8.125 4.375 8.125H10.625Z" fill="white"/>
<path fill-rule="evenodd" clip-rule="evenodd" d="M7.5 0.75C3.77208 0.75 0.75 3.77208 0.75 7.5C0.75 11.2279 3.77208 14.25 7.5 14.25C11.2279 14.25 14.25 11.2279 14.25 7.5C14.25 3.77208 11.2279 0.75 7.5 0.75ZM1.75 7.5C1.75 4.32436 4.32436 1.75 7.5 1.75C10.6756 1.75 13.25 4.32436 13.25 7.5C13.25 10.6756 10.6756 13.25 7.5 13.25C4.32436 13.25 1.75 10.6756 1.75 7.5ZM4.375 7.625C4.21594 7.625 4.06636 7.70068 3.97215 7.82884C3.87793 7.957 3.85032 8.12234 3.89777 8.27416L4.375 8.125C3.89777 8.27416 3.89783 8.27437 3.8979 8.27459L3.89805 8.27507L3.89841 8.27622L3.89936 8.27919L3.90217 8.28786L3.91151 8.31564C3.91942 8.33863 3.93074 8.37045 3.94568 8.40983C3.97554 8.4885 4.02006 8.5979 4.08099 8.72786C4.20224 8.98651 4.39162 9.33338 4.66463 9.68283C5.2118 10.3832 6.12412 11.125 7.5 11.125C8.87588 11.125 9.7882 10.3832 10.3354 9.68283C10.6084 9.33338 10.7978 8.98651 10.919 8.72786C10.9799 8.5979 11.0245 8.4885 11.0543 8.40983C11.0693 8.37045 11.0806 8.33863 11.0885 8.31564L11.0978 8.28786L11.1006 8.27919L11.1016 8.27622L11.1019 8.27507L11.1021 8.27459C11.1022 8.27437 11.1022 8.27416 10.625 8.125L11.1022 8.27416C11.1497 8.12234 11.1221 7.957 11.0279 7.82884C10.9336 7.70068 10.7841 7.625 10.625 7.625H4.375ZM5.45265 9.06717C5.3351 8.91672 5.23629 8.7655 5.15476 8.625H9.84524C9.76371 8.7655 9.6649 8.91672 9.54735 9.06717C9.11793 9.61682 8.46775 10.125 7.5 10.125C6.53225 10.125 5.88207 9.61682 5.45265 9.06717ZM6.25 5.625C6.25 5.97018 5.97018 6.25 5.625 6.25C5.27982 6.25 5 5.97018 5 5.625C5 5.27982 5.27982 5 5.625 5C5.97018 5 6.25 5.27982 6.25 5.625ZM9.375 6.25C9.72018 6.25 10 5.97018 10 5.625C10 5.27982 9.72018 5 9.375 5C9.02982 5 8.75 5.27982 8.75 5.625C8.75 5.97018 9.02982 6.25 9.375 6.25Z" fill="white"/>
</svg>
