<svg width="16" height="16" viewBox="0 0 16 16" fill="none" xmlns="http://www.w3.org/2000/svg">
<g clip-path="url(#clip0_0_93)">
<path opacity="0.12" d="M2.66666 7.33334H13.3333V9.86667C13.3333 11.5468 13.3333 12.3869 13.0063 13.0286C12.7187 13.5931 12.2598 14.0521 11.6953 14.3397C11.0536 14.6667 10.2135 14.6667 8.53332 14.6667H7.46666C5.7865 14.6667 4.94642 14.6667 4.30468 14.3397C3.7402 14.0521 3.28126 13.5931 2.99364 13.0286C2.66666 12.3869 2.66666 11.5468 2.66666 9.86668V7.33334Z" fill="white"/>
<path fill-rule="evenodd" clip-rule="evenodd" d="M10.3333 1.83334C10.9777 1.83334 11.5 2.35568 11.5 3.00001C11.5 3.64434 10.9777 4.16668 10.3333 4.16668H8.67203L9.11116 2.70289C9.266 2.18678 9.74103 1.83334 10.2799 1.83334H10.3333ZM12.5 3.00001C12.5 3.42956 12.375 3.82991 12.1594 4.16668H13.3333C14.3459 4.16668 15.1667 4.98749 15.1667 6.00001C15.1667 6.83919 14.6028 7.54669 13.8333 7.76433V11.4667V11.4881V11.4881C13.8333 12.03 13.8334 12.4671 13.8044 12.821C13.7747 13.1854 13.7118 13.5055 13.5609 13.8017C13.3212 14.2721 12.9387 14.6545 12.4683 14.8942C12.1722 15.0451 11.8521 15.108 11.4877 15.1378C11.1337 15.1667 10.6966 15.1667 10.1547 15.1667H10.1333L8.00001 15.1667L5.86668 15.1667H5.84529C5.30339 15.1667 4.86631 15.1667 4.51237 15.1378C4.14794 15.108 3.82785 15.0451 3.5317 14.8942C3.0613 14.6545 2.67884 14.2721 2.43916 13.8017C2.28827 13.5055 2.22536 13.1854 2.19559 12.821C2.16667 12.467 2.16667 12.03 2.16668 11.4881L2.16668 11.4667V7.76433C1.39717 7.54669 0.833344 6.83919 0.833344 6.00001C0.833344 4.98749 1.65415 4.16668 2.66668 4.16668H3.84062C3.62501 3.82991 3.50001 3.42956 3.50001 3.00001C3.50001 1.80339 4.47006 0.833344 5.66668 0.833344H5.72016C6.7006 0.833344 7.56496 1.47645 7.84668 2.41554L8.00001 2.92663L8.15334 2.41554C8.43506 1.47645 9.29942 0.833344 10.2799 0.833344H10.3333C11.53 0.833344 12.5 1.80339 12.5 3.00001ZM3.16668 7.83334V11.4667C3.16668 12.035 3.16707 12.4311 3.19226 12.7396C3.21699 13.0421 3.26307 13.216 3.33017 13.3477C3.47398 13.6299 3.70345 13.8594 3.98569 14.0032C4.11737 14.0703 4.29121 14.1164 4.5938 14.1411C4.90222 14.1663 5.29838 14.1667 5.86668 14.1667H7.50001V7.83334H3.16668ZM8.50001 7.83334V14.1667H10.1333C10.7016 14.1667 11.0978 14.1663 11.4062 14.1411C11.7088 14.1164 11.8827 14.0703 12.0143 14.0032C12.2966 13.8594 12.526 13.6299 12.6699 13.3477C12.7369 13.216 12.783 13.0421 12.8078 12.7396C12.833 12.4311 12.8333 12.035 12.8333 11.4667V7.83334H8.50001ZM14.1667 6.00001C14.1667 6.46025 13.7936 6.83334 13.3333 6.83334H8.50001V5.16668H10.3333H13.3333C13.7936 5.16668 14.1667 5.53977 14.1667 6.00001ZM7.50001 6.83334V5.16668H5.66668H2.66668C2.20644 5.16668 1.83334 5.53977 1.83334 6.00001C1.83334 6.46025 2.20644 6.83334 2.66668 6.83334H7.50001ZM7.328 4.16668L6.88886 2.70289C6.73403 2.18678 6.25899 1.83334 5.72016 1.83334H5.66668C5.02234 1.83334 4.50001 2.35568 4.50001 3.00001C4.50001 3.64434 5.02234 4.16668 5.66668 4.16668H7.328Z" fill="white"/>
</g>
<defs>
<clipPath id="clip0_0_93">
<rect width="16" height="16" fill="white"/>
</clipPath>
</defs>
</svg>
