<svg width="16" height="16" viewBox="0 0 16 16" fill="none" xmlns="http://www.w3.org/2000/svg">
<path opacity="0.12" fill-rule="evenodd" clip-rule="evenodd" d="M8.29825 3.52438L6.66667 4.6665L6.66666 9.99983L8.29825 11.1419C9.92779 12.2826 10.7426 12.853 11.4208 12.8233C12.0113 12.7974 12.5602 12.5116 12.9201 12.0426C13.3333 11.504 13.3333 10.5095 13.3333 8.52039L13.3333 6.14593C13.3333 4.15683 13.3333 3.16228 12.9201 2.62368C12.5602 2.15468 12.0113 1.8689 11.4208 1.84305C10.7426 1.81337 9.92779 2.38371 8.29826 3.52438L8.29825 3.52438ZM6 10.0001L4 10.0001L4 13.0001C4 13.5524 4.44771 14.0001 5 14.0001C5.55228 14.0001 6 13.5524 6 13.0001L6 10.0001Z" fill="#F2F2F2"/>
<path fill-rule="evenodd" clip-rule="evenodd" d="M8.585 3.934C9.40791 3.35795 9.99692 2.94626 10.4645 2.67887C10.9373 2.40847 11.2069 2.33417 11.3989 2.34257C11.8419 2.36195 12.2535 2.57629 12.5234 2.92805C12.6404 3.08053 12.7341 3.344 12.7838 3.88642C12.8328 4.4228 12.8333 5.14142 12.8333 6.14592L12.8333 8.52039C12.8333 9.52489 12.8328 10.2435 12.7838 10.7799C12.7341 11.3223 12.6404 11.5858 12.5234 11.7383C12.2535 12.09 11.8419 12.3044 11.3989 12.3237C11.2069 12.3322 10.9373 12.2579 10.4645 11.9875C9.99692 11.7201 9.40791 11.3084 8.585 10.7323L7.16668 9.7395L7.16668 4.92682L8.585 3.934ZM13.8278 9.78436C13.8215 10.1992 13.8081 10.56 13.7796 10.871C13.7259 11.4578 13.613 11.9609 13.3168 12.347C12.867 12.9333 12.1809 13.2905 11.4426 13.3228C10.9564 13.3441 10.4795 13.148 9.96805 12.8555C9.45602 12.5627 8.82974 12.1243 8.03366 11.567L8.03358 11.567L8.03352 11.5669L8.03351 11.5669L8.01153 11.5516L6.5093 10.5L6.50001 10.5L6.50001 13.0001C6.50001 13.8285 5.82844 14.5001 5.00001 14.5001C4.17158 14.5001 3.50001 13.8285 3.50001 13.0001L3.50001 10.4607C1.98868 10.221 0.833342 8.91209 0.833342 7.33332C0.833342 5.58442 2.25111 4.16666 4.00001 4.16666L6.50883 4.16666L8.01153 3.11477L8.03353 3.09937L8.03355 3.09935L8.03356 3.09935L8.0336 3.09932C8.82971 2.54204 9.45601 2.10362 9.96805 1.8108C10.4795 1.51828 10.9564 1.32225 11.4426 1.34353C12.1809 1.37583 12.867 1.73306 13.3168 2.31932C13.613 2.70543 13.7259 3.20853 13.7796 3.79531C13.8081 4.10641 13.8215 4.46719 13.8278 4.88212C14.9717 5.1116 15.8333 6.12179 15.8333 7.33324C15.8333 8.54469 14.9717 9.55489 13.8278 9.78436ZM13.8333 6.0883C13.8333 6.09852 13.8333 6.10876 13.8333 6.11903L13.8333 6.11908L13.8333 6.14592L13.8333 8.52039L13.8333 8.54724L13.8333 8.74789C14.4159 8.54197 14.8333 7.98635 14.8333 7.33324C14.8333 6.68013 14.4159 6.12451 13.8333 5.91859L13.8333 6.0883ZM6.16668 5.16666L4.00001 5.16666C2.80339 5.16666 1.83334 6.13671 1.83334 7.33332C1.83334 8.52994 2.80339 9.49999 4.00001 9.49999L6.16668 9.49999L6.16668 5.16666ZM4.50001 10.5001L4.50001 13.0001C4.50001 13.2762 4.72387 13.5001 5.00001 13.5001C5.27615 13.5001 5.50001 13.2762 5.50001 13.0001L5.50001 10.5001L4.50001 10.5001Z" fill="#F2F2F2"/>
</svg>
